<?xml version="1.0" encoding="UTF-8"?>
<level>
  <owner>stolbitsa</owner>
  <repo>gorodok-go-3</repo>
  <version>v1.0.3</version>
  <next number="1" owner="stolbitsa" repo="gorodok-go-1"/>
  <readme>
    <ru>bda3ee6de34ea5553ed7ece913c6bd38d59c8a08a1722b8e4153440ac7438a4f</ru>
    <en>d6708e8a24ba92c335846024856974d8211a6de9373c9e4f9ef0c5a67920d052</en>
  </readme>
  <license>b1b99f5538d1fd3702219bff50c665196dfa42f6ee755c37fe41a6178d6bc6e5</license>
  <exercise number="1">
    <scale>minor</scale>
    <bpm>78</bpm>
    <lowestNote>38</lowestNote>
    <tonalities>10</tonalities>
    <video name="25-gorodok-hor-hq-lesson-3_1.mp4" size="2898854" type="video/mp4" volume="1">3670c08332399bce634e39cda8853d79f53cb00ac24bfe22f9d7cb84b027054b</video>
    <notes>
      <note number="1" values="58" ticks="143" durationTicks="33" ppq="96" velocity="0.604"/>
      <note number="2" values="188" ticks="175" durationTicks="28" ppq="96" velocity="0.639"/>
      <note number="3" values="288" ticks="204" durationTicks="36" ppq="96" velocity="0.719"/>
      <note number="4" values="188" ticks="246" durationTicks="33" ppq="96" velocity="0.719"/>
      <note number="5" values="288" ticks="282" durationTicks="41" ppq="96" velocity="0.719"/>
      <note number="6" values="188" ticks="322" durationTicks="43" ppq="96" velocity="0.719"/>
      <note number="7" values="288" ticks="367" durationTicks="49" ppq="96" velocity="0.719"/>
      <note number="8" values="188" ticks="415" durationTicks="45" ppq="96" velocity="0.719"/>
    </notes>
  </exercise>
  <exercise number="2">
    <scale>minor</scale>
    <bpm>78</bpm>
    <lowestNote>38</lowestNote>
    <tonalities>10</tonalities>
    <video name="25-gorodok-hor-hq-lesson-3_2.mp4" size="2297000" type="video/mp4" volume="1">a0e198d098be8876af3506a9252e0ed36183da255d2a01e823c89d9893ba5c7c</video>
    <notes>
      <note number="1" values="58" ticks="88" durationTicks="32" ppq="96" velocity="0.598"/>
      <note number="2" values="188" ticks="124" durationTicks="33" ppq="96" velocity="0.638"/>
      <note number="3" values="288" ticks="165" durationTicks="38" ppq="96" velocity="0.717"/>
      <note number="4" values="188" ticks="211" durationTicks="30" ppq="96" velocity="0.717"/>
      <note number="5" values="288" ticks="249" durationTicks="37" ppq="96" velocity="0.717"/>
      <note number="6" values="388" ticks="290" durationTicks="36" ppq="96" velocity="0.717"/>
      <note number="7" values="288" ticks="334" durationTicks="49" ppq="96" velocity="0.717"/>
      <note number="8" values="188" ticks="386" durationTicks="45" ppq="96" velocity="0.717"/>
    </notes>
  </exercise>
  <exercise number="3">
    <scale>chromaticminor</scale>
    <bpm>78</bpm>
    <lowestNote>38</lowestNote>
    <tonalities>10</tonalities>
    <video name="25-gorodok-hor-hq-lesson-3_3.mp4" size="2723140" type="video/mp4" volume="1">5092e692c63ac5fefd77a711b6e58d710601946f4f4b03058a3b0797aabdef98</video>
    <notes>
      <note number="1" values="78" ticks="32" durationTicks="29" ppq="96" velocity="0.724"/>
      <note number="2" values="698" ticks="66" durationTicks="35" ppq="96" velocity="0.739"/>
      <note number="3" values="68" ticks="104" durationTicks="48" ppq="96" velocity="0.719"/>
    </notes>
  </exercise>
  <exercise number="4">
    <scale>minor</scale>
    <bpm>78</bpm>
    <lowestNote>28</lowestNote>
    <tonalities>10</tonalities>
    <video name="25-gorodok-hor-hq-lesson-3_4.mp4" size="2719807" type="video/mp4" volume="1">a817f568850e86492322386a4512273fe182a98ad9190ab59b5bec48e2a5e6d5</video>
    <notes>
      <note number="1" values="48" ticks="103" durationTicks="24" ppq="96" velocity="0.598"/>
      <note number="2" values="58" ticks="125" durationTicks="24" ppq="96" velocity="0.638"/>
      <note number="3" values="68" ticks="151" durationTicks="28" ppq="96" velocity="0.717"/>
      <note number="4" values="68" ticks="199" durationTicks="37" ppq="96" velocity="0.717"/>
      <note number="5" values="188" ticks="250" durationTicks="30" ppq="96" velocity="0.717"/>
      <note number="6" values="188" ticks="297" durationTicks="31" ppq="96" velocity="0.717"/>
      <note number="7" values="58" ticks="327" durationTicks="49" ppq="96" velocity="0.717"/>
      <note number="8" values="38" ticks="378" durationTicks="45" ppq="96" velocity="0.717"/>
    </notes>
  </exercise>
  <exercise number="5">
    <scale>minor</scale>
    <bpm>78</bpm>
    <lowestNote>28</lowestNote>
    <tonalities>10</tonalities>
    <video name="25-gorodok-hor-hq-lesson-3_5.mp4" size="2432306" type="video/mp4" volume="1">641b140679ffd86d481764907ef97084e1259fca3a686279169fb7179d08df5d</video>
    <notes>
      <note number="1" values="28" ticks="100" durationTicks="24" ppq="96" velocity="0.591"/>
      <note number="2" values="38" ticks="124" durationTicks="24" ppq="96" velocity="0.638"/>
      <note number="3" values="48" ticks="148" durationTicks="35" ppq="96" velocity="0.717"/>
      <note number="4" values="48" ticks="197" durationTicks="36" ppq="96" velocity="0.717"/>
      <note number="5" values="58" ticks="243" durationTicks="24" ppq="96" velocity="0.717"/>
      <note number="6" values="68" ticks="276" durationTicks="22" ppq="96" velocity="0.717"/>
      <note number="7" values="68" ticks="311" durationTicks="47" ppq="96" velocity="0.717"/>
      <note number="8" values="58" ticks="363" durationTicks="45" ppq="96" velocity="0.717"/>
    </notes>
  </exercise>
  <exercise number="6">
    <scale>minor</scale>
    <bpm>78</bpm>
    <lowestNote>28</lowestNote>
    <tonalities>10</tonalities>
    <video name="25-gorodok-hor-hq-lesson-3_6.mp4" size="2817810" type="video/mp4" volume="1">a94362c2ae7184f66d9239c382d9d6d83ee3656360f3cdefa9c675778a691a80</video>
    <notes>
      <note number="1" values="58" ticks="86" durationTicks="29" ppq="96" velocity="0.717"/>
      <note number="2" values="48" ticks="118" durationTicks="35" ppq="96" velocity="0.732"/>
      <note number="3" values="38" ticks="155" durationTicks="88" ppq="96" velocity="0.717"/>
    </notes>
  </exercise>
  <exercise number="7">
    <scale>minor</scale>
    <bpm>78</bpm>
    <lowestNote>38</lowestNote>
    <tonalities>10</tonalities>
    <video name="25-gorodok-hor-hq-lesson-3_7.mp4" size="3043485" type="video/mp4" volume="1">7f0bdf0a7af48ceb3fef6bf8bb7dc0eff964aed0df7df1eb71be7d703ce7177c</video>
    <notes>
      <note number="1" values="58" ticks="98" durationTicks="24" ppq="96" velocity="0.591"/>
      <note number="2" values="188" ticks="136" durationTicks="24" ppq="96" velocity="0.638"/>
      <note number="3" values="288" ticks="174" durationTicks="35" ppq="96" velocity="0.717"/>
      <note number="4" values="188" ticks="207" durationTicks="33" ppq="96" velocity="0.717"/>
      <note number="5" values="288" ticks="240" durationTicks="41" ppq="96" velocity="0.717"/>
      <note number="6" values="188" ticks="291" durationTicks="35" ppq="96" velocity="0.717"/>
      <note number="7" values="288" ticks="329" durationTicks="46" ppq="96" velocity="0.717"/>
      <note number="8" values="188" ticks="378" durationTicks="45" ppq="96" velocity="0.717"/>
    </notes>
  </exercise>
  <exercise number="8">
    <scale>minor</scale>
    <bpm>78</bpm>
    <lowestNote>38</lowestNote>
    <tonalities>10</tonalities>
    <video name="25-gorodok-hor-hq-lesson-3_8.mp4" size="2971380" type="video/mp4" volume="1">78a59ac46aeb1514f3a763131567a992f1018bb6c510324accef52ae721091f3</video>
    <notes>
      <note number="1" values="58" ticks="55" durationTicks="32" ppq="96" velocity="0.591"/>
      <note number="2" values="188" ticks="94" durationTicks="33" ppq="96" velocity="0.638"/>
      <note number="3" values="288" ticks="139" durationTicks="38" ppq="96" velocity="0.717"/>
      <note number="4" values="188" ticks="177" durationTicks="39" ppq="96" velocity="0.717"/>
      <note number="5" values="288" ticks="230" durationTicks="29" ppq="96" velocity="0.717"/>
      <note number="6" values="388" ticks="266" durationTicks="24" ppq="96" velocity="0.717"/>
      <note number="7" values="288" ticks="294" durationTicks="65" ppq="96" velocity="0.717"/>
      <note number="8" values="188" ticks="363" durationTicks="68" ppq="96" velocity="0.717"/>
    </notes>
  </exercise>
  <exercise number="9">
    <scale>chromaticminor</scale>
    <bpm>78</bpm>
    <lowestNote>38</lowestNote>
    <tonalities>10</tonalities>
    <video name="25-gorodok-hor-hq-lesson-3_9.mp4" size="2689825" type="video/mp4" volume="1">8ea6deca9ccb24471c45fd19efc61e811be5d926ab6ba7bca085d8b4dfbe9125</video>
    <notes>
      <note number="1" values="78" ticks="34" durationTicks="29" ppq="96" velocity="0.717"/>
      <note number="2" values="698" ticks="71" durationTicks="35" ppq="96" velocity="0.732"/>
      <note number="3" values="68" ticks="111" durationTicks="48" ppq="96" velocity="0.717"/>
    </notes>
  </exercise>
  <exercise number="10">
    <scale>minor</scale>
    <bpm>78</bpm>
    <lowestNote>28</lowestNote>
    <tonalities>10</tonalities>
    <video name="25-gorodok-hor-hq-lesson-3_10.mp4" size="2889278" type="video/mp4" volume="1">e14919cca0eed3b4799d1510864542c0f26f4c92971d37e67608c812a8d384f0</video>
    <notes>
      <note number="1" values="48" ticks="40" durationTicks="24" ppq="96" velocity="0.591"/>
      <note number="2" values="58" ticks="66" durationTicks="24" ppq="96" velocity="0.638"/>
      <note number="3" values="68" ticks="96" durationTicks="35" ppq="96" velocity="0.717"/>
      <note number="4" values="68" ticks="141" durationTicks="46" ppq="96" velocity="0.717"/>
      <note number="5" values="188" ticks="225" durationTicks="17" ppq="96" velocity="0.717"/>
      <note number="6" values="188" ticks="251" durationTicks="20" ppq="96" velocity="0.717"/>
      <note number="7" values="58" ticks="273" durationTicks="49" ppq="96" velocity="0.717"/>
      <note number="8" values="38" ticks="323" durationTicks="48" ppq="96" velocity="0.717"/>
    </notes>
  </exercise>
  <exercise number="11">
    <scale>minor</scale>
    <bpm>78</bpm>
    <lowestNote>28</lowestNote>
    <tonalities>10</tonalities>
    <video name="25-gorodok-hor-hq-lesson-3_11.mp4" size="2825010" type="video/mp4" volume="1">49d3318cf95f202ea17b037e5b2179670675e684393899a7621d691270ba1fc3</video>
    <notes>
      <note number="1" values="28" ticks="91" durationTicks="32" ppq="96" velocity="0.591"/>
      <note number="2" values="38" ticks="116" durationTicks="33" ppq="96" velocity="0.638"/>
      <note number="3" values="48" ticks="144" durationTicks="38" ppq="96" velocity="0.717"/>
      <note number="4" values="48" ticks="192" durationTicks="39" ppq="96" velocity="0.717"/>
      <note number="5" values="58" ticks="240" durationTicks="41" ppq="96" velocity="0.717"/>
      <note number="6" values="68" ticks="285" durationTicks="17" ppq="96" velocity="0.717"/>
      <note number="7" values="68" ticks="317" durationTicks="46" ppq="96" velocity="0.717"/>
      <note number="8" values="58" ticks="362" durationTicks="45" ppq="96" velocity="0.717"/>
    </notes>
  </exercise>
  <exercise number="12">
    <scale>minor</scale>
    <bpm>78</bpm>
    <lowestNote>28</lowestNote>
    <tonalities>10</tonalities>
    <video name="25-gorodok-hor-hq-lesson-3_12.mp4" size="2968677" type="video/mp4" volume="1">97d6301f899a4bb77f32dc5503e2b356e4dfbe2bf7101e402fd1d49da4d00984</video>
    <notes>
      <note number="1" values="58" ticks="82" durationTicks="46" ppq="96" velocity="0.651"/>
      <note number="2" values="48" ticks="132" durationTicks="35" ppq="96" velocity="0.641"/>
      <note number="3" values="38" ticks="168" durationTicks="78" ppq="96" velocity="0.684"/>
    </notes>
  </exercise>
</level>
